<?xml version="1.0" standalone="no"?>
<!DOCTYPE svg PUBLIC "-//W3C//DTD SVG 20010904//EN"
 "http://www.w3.org/TR/2001/REC-SVG-20010904/DTD/svg10.dtd">
<svg version="1.0" xmlns="http://www.w3.org/2000/svg"
 width="552.000000pt" height="552.000000pt" viewBox="0 0 552.000000 552.000000"
 preserveAspectRatio="xMidYMid meet">
<metadata>
Created by potrace 1.14, written by Peter Selinger 2001-2017
</metadata>
<g transform="translate(0.000000,552.000000) scale(0.100000,-0.100000)"
fill="#000000" stroke="none">
<path d="M3487 5382 c-15 -16 -16 -24 -8 -41 14 -25 27 -28 151 -36 131 -8
405 -44 580 -76 374 -68 533 -122 758 -260 155 -96 448 -345 526 -449 l26 -35
0 76 0 75 -87 86 c-154 149 -355 299 -524 391 -215 117 -478 189 -864 237 -93
12 -197 26 -230 31 -33 5 -116 12 -185 16 -117 5 -126 4 -143 -15z"/>
<path d="M2470 5324 c-125 -13 -400 -61 -575 -99 -225 -50 -586 -220 -805
-381 -226 -166 -321 -293 -433 -584 -112 -289 -155 -412 -150 -430 6 -24 48
-37 67 -21 16 13 26 38 106 251 73 194 76 202 146 345 110 225 288 377 662
564 179 90 247 115 423 157 463 108 652 124 916 78 23 -5 36 -1 52 15 12 12
21 26 21 31 0 22 -43 46 -103 57 -67 13 -270 24 -327 17z"/>
<path d="M2599 4008 c-38 -43 -192 -394 -250 -568 -95 -287 -91 -282 -216
-327 -84 -30 -164 -38 -236 -23 -82 17 -97 36 -97 125 0 98 -18 232 -36 266
-8 16 -26 36 -40 45 -24 16 -26 16 -49 -6 -14 -13 -25 -31 -25 -39 -1 -9 -29
-72 -63 -140 l-62 -124 -130 -58 c-71 -32 -137 -58 -145 -58 -8 -1 -55 31
-104 70 -50 39 -107 78 -128 86 -21 8 -38 18 -38 22 0 4 40 69 89 144 49 74
138 213 197 307 110 177 114 187 72 213 -25 16 -45 1 -84 -60 -21 -32 -108
-166 -194 -298 -171 -263 -240 -381 -240 -413 0 -20 26 -42 49 -42 6 0 21 11
33 25 12 14 28 25 35 25 28 0 102 -43 159 -91 61 -53 125 -88 158 -89 17 0
214 82 306 128 28 14 44 36 85 115 l50 97 6 -107 c10 -159 18 -178 87 -210 45
-20 78 -26 159 -31 115 -5 157 3 268 53 109 49 146 105 209 322 45 152 54 176
159 399 104 222 103 220 81 245 -23 25 -41 24 -65 -3z"/>
<path d="M496 3742 c-9 -11 -23 -45 -31 -76 -40 -152 5 -314 106 -380 42 -28
68 -33 87 -14 24 24 13 56 -34 95 -25 21 -52 54 -61 73 -20 46 -19 152 1 220
14 48 14 56 1 77 -19 28 -46 30 -69 5z"/>
<path d="M3677 3278 c-31 -40 -40 -63 -62 -154 -27 -110 -54 -194 -77 -241
l-22 -44 22 -21 c33 -34 66 -13 101 65 16 34 31 70 35 80 14 43 24 8 30 -110
9 -152 23 -193 68 -193 16 0 42 -10 58 -22 28 -20 35 -21 186 -14 177 8 224
20 224 59 0 14 -6 29 -12 35 -9 7 -79 8 -208 3 -107 -4 -197 -6 -198 -5 -15 9
-23 112 -26 300 -2 199 -5 225 -22 255 -28 48 -64 51 -97 7z"/>
<path d="M274 3018 c-137 -129 -172 -165 -227 -230 l-48 -56 3 -72 3 -73 49
64 c28 35 123 139 213 230 109 110 163 172 163 187 0 20 -26 42 -48 42 -6 0
-54 -42 -108 -92z"/>
<path d="M857 2958 c-8 -13 -24 -59 -37 -103 -13 -44 -25 -81 -25 -83 -1 -1
-43 6 -94 17 -66 13 -94 16 -97 7 -5 -15 -34 -139 -34 -148 0 -14 37 -27 91
-33 83 -10 85 -13 59 -130 -7 -30 -5 -45 5 -62 12 -17 13 -33 5 -74 -13 -66
-13 -365 0 -444 5 -33 14 -114 20 -180 34 -393 81 -573 143 -549 30 11 35 46
15 119 -20 78 -45 247 -58 405 -5 58 -14 137 -19 175 -11 76 -13 441 -2 490 4
21 13 31 29 33 31 5 34 -13 19 -97 -16 -84 -19 -81 85 -101 32 -6 60 -15 62
-18 2 -4 -2 -43 -10 -86 -8 -43 -13 -80 -11 -82 2 -3 51 -14 108 -25 444 -87
545 -105 556 -97 6 5 15 35 19 66 10 87 16 94 75 87 27 -3 62 -10 78 -15 39
-11 49 2 62 77 15 87 13 86 103 67 92 -19 90 -21 106 78 7 37 15 70 19 72 4 3
61 -7 126 -20 66 -14 138 -28 160 -32 45 -8 46 -13 30 -87 -19 -89 -20 -88 73
-108 45 -11 82 -24 82 -31 0 -6 -6 -44 -14 -83 l-14 -73 80 -17 80 -17 -6 -45
c-3 -26 -9 -65 -12 -87 -5 -35 -3 -43 12 -47 11 -3 136 -29 279 -56 143 -28
364 -71 492 -96 127 -25 236 -45 241 -45 6 0 16 33 22 74 7 40 15 79 19 85 5
8 29 8 89 -1 45 -7 84 -9 87 -6 3 3 11 37 17 74 6 38 14 72 17 76 3 4 27 2 54
-3 52 -12 56 -21 37 -102 -34 -151 -44 -191 -66 -267 -29 -98 -96 -272 -132
-345 -105 -211 -373 -553 -611 -778 -28 -27 -51 -57 -51 -67 0 -27 26 -43 57
-35 16 4 45 8 65 9 21 1 46 9 55 18 10 8 45 31 78 51 33 19 85 57 115 83 l55
47 3 -27 c2 -15 -6 -74 -18 -129 -29 -134 -29 -145 9 -179 36 -32 57 -35 89
-12 28 19 28 38 0 66 l-21 21 23 113 c35 174 16 246 -68 252 -23 2 -42 6 -42
10 0 4 32 48 71 97 119 152 229 322 286 443 111 236 190 508 223 775 9 69 16
97 26 97 7 0 46 -7 86 -15 103 -22 477 -95 484 -95 10 0 -7 -60 -111 -386
-175 -550 -346 -886 -539 -1057 -117 -105 -275 -270 -276 -287 0 -22 20 -40
44 -40 11 0 56 34 101 78 45 42 123 114 173 160 167 152 284 336 437 687 63
144 79 189 125 350 17 61 57 189 89 285 54 166 59 175 84 178 24 3 275 -43
284 -52 2 -2 -4 -36 -13 -76 -9 -39 -12 -76 -8 -80 12 -12 314 -71 325 -64 5
3 9 41 9 84 0 66 -3 79 -17 84 -17 5 -150 30 -223 41 -59 10 -71 16 -66 33 5
16 26 140 26 153 0 3 -55 16 -122 29 -161 30 -168 33 -168 69 0 15 -7 34 -15
41 -22 18 -64 4 -75 -25 -7 -19 -17 -25 -37 -24 -16 0 -156 26 -313 57 l-285
57 -6 166 c-7 170 -16 211 -51 233 -13 8 -23 8 -35 0 -20 -13 -20 -9 -8 -231
l8 -143 -24 0 c-13 0 -184 32 -379 70 -195 39 -438 86 -540 106 -102 19 -333
64 -515 99 -181 36 -598 116 -925 180 -327 64 -650 127 -718 140 -68 14 -125
25 -128 25 -10 0 -2 51 16 105 23 67 25 96 8 113 -19 19 -56 14 -71 -10z m158
-413 c80 -10 81 -11 67 -100 -7 -42 -10 -80 -7 -84 2 -5 38 -14 80 -21 67 -11
75 -15 75 -35 0 -35 -19 -128 -29 -138 -8 -8 -136 9 -157 22 -7 4 -6 29 4 84
9 42 13 79 10 82 -3 3 -42 13 -87 22 -65 13 -81 19 -76 31 3 9 10 36 15 61 20
92 20 92 38 87 9 -2 40 -7 67 -11z m1727 -337 c29 -7 56 -16 59 -21 3 -4 -1
-42 -9 -83 -13 -64 -18 -74 -36 -74 -26 1 -136 27 -144 34 -6 6 15 133 24 148
7 11 44 10 106 -4z m318 -62 c57 -10 83 -15 85 -18 15 -16 -12 -168 -29 -168
-6 0 -44 7 -85 15 -40 9 -75 14 -76 13 -1 -2 -10 -38 -19 -80 -16 -70 -20 -78
-40 -78 -37 0 -129 19 -139 29 -5 5 -4 34 3 67 7 33 13 66 15 74 3 21 21 23
100 6 38 -8 72 -13 76 -11 3 2 11 37 19 77 15 86 17 90 38 84 10 -2 33 -7 52
-10z m172 -208 c29 -6 56 -14 60 -17 6 -5 -19 -151 -27 -159 -6 -6 -155 21
-160 28 -3 5 0 42 7 84 11 73 13 76 39 76 15 0 51 -5 81 -12z"/>
<path d="M2382 2958 c-17 -17 -15 -53 6 -70 26 -23 109 -63 182 -86 160 -53
405 -81 535 -62 298 43 318 48 313 89 -4 34 -39 51 -86 40 -75 -16 -283 -39
-356 -39 -150 0 -382 52 -499 111 -64 32 -77 35 -95 17z"/>
<path d="M1982 1648 c-13 -13 -16 -37 -6 -62 9 -23 70 -21 83 2 23 42 -43 94
-77 60z"/>
<path d="M1655 1373 c-23 -22 -13 -63 27 -120 39 -54 153 -143 184 -143 27 0
56 32 48 53 -6 16 -92 87 -105 87 -5 0 -27 28 -50 63 -57 84 -72 92 -104 60z"/>
<path d="M2235 1291 c-79 -37 -200 -116 -219 -143 -13 -19 -14 -25 -2 -43 21
-31 43 -30 101 8 29 20 98 59 154 87 56 28 104 57 107 65 3 7 1 23 -6 34 -15
29 -61 26 -135 -8z"/>
<path d="M912 1058 c-21 -21 -13 -51 27 -93 21 -22 49 -65 61 -95 45 -112 54
-131 65 -138 7 -4 29 -32 48 -64 20 -31 48 -65 62 -76 14 -11 25 -25 25 -30 0
-19 103 -118 160 -155 30 -20 84 -56 120 -81 141 -100 140 -99 237 -123 29 -7
73 21 73 46 0 21 -30 51 -52 51 -33 0 -102 31 -156 71 -32 22 -100 69 -152
102 -59 39 -107 79 -127 107 -19 25 -43 56 -55 70 -67 77 -133 182 -157 250
-42 120 -135 202 -179 158z"/>
<path d="M152 868 c-6 -7 -37 -54 -70 -104 -33 -51 -65 -95 -71 -98 -7 -4 -11
-40 -11 -87 0 -52 4 -78 10 -74 6 4 42 52 81 108 39 56 75 102 81 102 12 0 13
-2 54 -94 23 -51 53 -88 157 -193 101 -102 132 -128 147 -123 26 8 36 50 20
80 -7 12 -58 68 -114 124 -92 91 -106 109 -136 182 -23 56 -40 84 -57 92 -20
9 -23 16 -18 39 4 17 2 35 -5 43 -15 18 -54 19 -68 3z"/>
<path d="M840 429 c-36 -5 -91 -9 -123 -9 -60 -2 -87 -17 -87 -50 0 -49 46
-59 190 -39 41 6 133 14 204 17 114 6 130 9 142 27 12 18 11 24 -2 43 -14 21
-22 22 -137 21 -67 -1 -151 -5 -187 -10z"/>
<path d="M5471 271 c-22 -55 -41 -106 -41 -114 0 -8 9 -22 20 -32 17 -15 24
-16 45 -7 25 11 25 13 25 132 0 66 -2 120 -4 120 -2 0 -22 -45 -45 -99z"/>
<path d="M2510 213 c-47 -7 -199 -17 -338 -21 -235 -6 -255 -8 -268 -26 -12
-17 -12 -23 0 -40 13 -20 24 -21 237 -24 178 -2 256 2 378 18 157 20 191 32
191 70 0 43 -47 48 -200 23z"/>
<path d="M1377 3 c761 -2 2005 -2 2765 0 761 1 139 2 -1382 2 -1521 0 -2143
-1 -1383 -2z"/>
</g>
</svg>
